<svg xmlns="http://www.w3.org/2000/svg" width="120" height="48" viewBox="0 0 120 48"><defs><filter id="soft" x="-40%" y="-40%" width="180%" height="180%"><feGaussianBlur stdDeviation="0.55"/></filter></defs><rect x="1" y="1" width="118" height="46" rx="7" fill="#2f2f34"/><line x1="1" y1="31" x2="114" y2="35" stroke="rgba(250,250,252,0.55)" stroke-width="1.5"/><rect x="25.2" y="13.1" width="2.5" height="3.0" rx="0.4" fill="rgba(232,232,240,0.93)" filter="url(#soft)" transform="rotate(9.8 31.2 23.5)"/><rect x="35.2" y="12.7" width="2.2" height="2.7" rx="0.4" fill="rgba(232,232,240,0.87)" filter="url(#soft)" transform="rotate(9.8 31.2 23.5)"/><rect x="24.9" y="15.8" width="2.3" height="2.8" rx="0.4" fill="rgba(232,232,240,0.86)" filter="url(#soft)" transform="rotate(9.8 31.2 23.5)"/><rect x="32.8" y="15.9" width="2.3" height="2.8" rx="0.4" fill="rgba(232,232,240,0.73)" filter="url(#soft)" transform="rotate(9.8 31.2 23.5)"/><rect x="24.9" y="18.8" width="2.4" height="2.9" rx="0.4" fill="rgba(232,232,240,0.72)" filter="url(#soft)" transform="rotate(9.8 31.2 23.5)"/><rect x="30.2" y="19.1" width="2.6" height="3.1" rx="0.4" fill="rgba(232,232,240,0.80)" filter="url(#soft)" transform="rotate(9.8 31.2 23.5)"/><rect x="25.3" y="22.1" width="2.5" height="3.0" rx="0.4" fill="rgba(232,232,240,0.85)" filter="url(#soft)" transform="rotate(9.8 31.2 23.5)"/><rect x="27.4" y="22.0" width="2.5" height="3.0" rx="0.4" fill="rgba(232,232,240,0.61)" filter="url(#soft)" transform="rotate(9.8 31.2 23.5)"/><rect x="24.8" y="25.3" width="2.3" height="2.8" rx="0.4" fill="rgba(232,232,240,0.80)" filter="url(#soft)" transform="rotate(9.8 31.2 23.5)"/><rect x="29.8" y="24.7" width="2.3" height="2.8" rx="0.4" fill="rgba(232,232,240,0.79)" filter="url(#soft)" transform="rotate(9.8 31.2 23.5)"/><rect x="24.9" y="27.9" width="2.5" height="3.0" rx="0.4" fill="rgba(232,232,240,0.84)" filter="url(#soft)" transform="rotate(9.8 31.2 23.5)"/><rect x="32.8" y="28.0" width="2.2" height="2.7" rx="0.4" fill="rgba(232,232,240,0.94)" filter="url(#soft)" transform="rotate(9.8 31.2 23.5)"/><rect x="25.2" y="30.8" width="2.6" height="3.1" rx="0.4" fill="rgba(232,232,240,0.65)" filter="url(#soft)" transform="rotate(9.8 31.2 23.5)"/><rect x="34.7" y="30.8" width="2.7" height="3.2" rx="0.4" fill="rgba(232,232,240,0.85)" filter="url(#soft)" transform="rotate(9.8 31.2 23.5)"/><circle cx="30.3" cy="29.1" r="1.1" fill="rgba(240,240,245,0.65)" filter="url(#soft)"/><circle cx="30.2" cy="17.1" r="1.1" fill="rgba(240,240,245,0.59)" filter="url(#soft)"/><circle cx="36.4" cy="23.5" r="1.1" fill="rgba(240,240,245,0.53)" filter="url(#soft)"/><rect x="43.2" y="13.3" width="2.2" height="2.7" rx="0.4" fill="rgba(232,232,240,0.73)" filter="url(#soft)" transform="rotate(0.5 49.8 23.5)"/><rect x="53.5" y="13.0" width="2.4" height="2.9" rx="0.4" fill="rgba(232,232,240,0.64)" filter="url(#soft)" transform="rotate(0.5 49.8 23.5)"/><rect x="43.8" y="16.0" width="2.7" height="3.2" rx="0.4" fill="rgba(232,232,240,0.70)" filter="url(#soft)" transform="rotate(0.5 49.8 23.5)"/><rect x="53.4" y="16.3" width="2.5" height="3.0" rx="0.4" fill="rgba(232,232,240,0.85)" filter="url(#soft)" transform="rotate(0.5 49.8 23.5)"/><rect x="43.7" y="19.2" width="2.6" height="3.1" rx="0.4" fill="rgba(232,232,240,0.92)" filter="url(#soft)" transform="rotate(0.5 49.8 23.5)"/><rect x="46.1" y="18.8" width="2.2" height="2.7" rx="0.4" fill="rgba(232,232,240,0.78)" filter="url(#soft)" transform="rotate(0.5 49.8 23.5)"/><rect x="53.2" y="18.8" width="2.6" height="3.1" rx="0.4" fill="rgba(232,232,240,0.70)" filter="url(#soft)" transform="rotate(0.5 49.8 23.5)"/><rect x="43.5" y="22.2" width="2.2" height="2.7" rx="0.4" fill="rgba(232,232,240,0.60)" filter="url(#soft)" transform="rotate(0.5 49.8 23.5)"/><rect x="48.8" y="22.0" width="2.3" height="2.8" rx="0.4" fill="rgba(232,232,240,0.87)" filter="url(#soft)" transform="rotate(0.5 49.8 23.5)"/><rect x="53.8" y="22.3" width="2.3" height="2.8" rx="0.4" fill="rgba(232,232,240,0.68)" filter="url(#soft)" transform="rotate(0.5 49.8 23.5)"/><rect x="43.7" y="24.8" width="2.7" height="3.2" rx="0.4" fill="rgba(232,232,240,0.63)" filter="url(#soft)" transform="rotate(0.5 49.8 23.5)"/><rect x="51.2" y="25.1" width="2.7" height="3.2" rx="0.4" fill="rgba(232,232,240,0.93)" filter="url(#soft)" transform="rotate(0.5 49.8 23.5)"/><rect x="53.8" y="24.8" width="2.5" height="3.0" rx="0.4" fill="rgba(232,232,240,0.76)" filter="url(#soft)" transform="rotate(0.5 49.8 23.5)"/><rect x="43.8" y="27.9" width="2.2" height="2.7" rx="0.4" fill="rgba(232,232,240,0.64)" filter="url(#soft)" transform="rotate(0.5 49.8 23.5)"/><rect x="53.3" y="28.3" width="2.5" height="3.0" rx="0.4" fill="rgba(232,232,240,0.66)" filter="url(#soft)" transform="rotate(0.5 49.8 23.5)"/><rect x="43.4" y="30.8" width="2.7" height="3.2" rx="0.4" fill="rgba(232,232,240,0.94)" filter="url(#soft)" transform="rotate(0.5 49.8 23.5)"/><rect x="53.6" y="31.0" width="2.6" height="3.1" rx="0.4" fill="rgba(232,232,240,0.72)" filter="url(#soft)" transform="rotate(0.5 49.8 23.5)"/><circle cx="45.2" cy="22.6" r="0.7" fill="rgba(240,240,245,0.51)" filter="url(#soft)"/><circle cx="53.0" cy="32.0" r="1.0" fill="rgba(240,240,245,0.45)" filter="url(#soft)"/><rect x="61.7" y="13.0" width="2.2" height="2.7" rx="0.4" fill="rgba(232,232,240,0.75)" filter="url(#soft)" transform="rotate(-1.6 68.2 23.5)"/><rect x="71.9" y="12.9" width="2.3" height="2.8" rx="0.4" fill="rgba(232,232,240,0.94)" filter="url(#soft)" transform="rotate(-1.6 68.2 23.5)"/><rect x="62.3" y="16.3" width="2.2" height="2.7" rx="0.4" fill="rgba(232,232,240,0.83)" filter="url(#soft)" transform="rotate(-1.6 68.2 23.5)"/><rect x="72.0" y="16.0" width="2.6" height="3.1" rx="0.4" fill="rgba(232,232,240,0.77)" filter="url(#soft)" transform="rotate(-1.6 68.2 23.5)"/><rect x="62.0" y="18.9" width="2.2" height="2.7" rx="0.4" fill="rgba(232,232,240,0.82)" filter="url(#soft)" transform="rotate(-1.6 68.2 23.5)"/><rect x="71.9" y="19.3" width="2.7" height="3.2" rx="0.4" fill="rgba(232,232,240,0.75)" filter="url(#soft)" transform="rotate(-1.6 68.2 23.5)"/><rect x="61.7" y="22.0" width="2.4" height="2.9" rx="0.4" fill="rgba(232,232,240,0.71)" filter="url(#soft)" transform="rotate(-1.6 68.2 23.5)"/><rect x="72.1" y="22.1" width="2.4" height="2.9" rx="0.4" fill="rgba(232,232,240,0.90)" filter="url(#soft)" transform="rotate(-1.6 68.2 23.5)"/><rect x="62.1" y="24.9" width="2.4" height="2.9" rx="0.4" fill="rgba(232,232,240,0.82)" filter="url(#soft)" transform="rotate(-1.6 68.2 23.5)"/><rect x="71.7" y="25.2" width="2.3" height="2.8" rx="0.4" fill="rgba(232,232,240,0.73)" filter="url(#soft)" transform="rotate(-1.6 68.2 23.5)"/><rect x="62.1" y="28.2" width="2.6" height="3.1" rx="0.4" fill="rgba(232,232,240,0.67)" filter="url(#soft)" transform="rotate(-1.6 68.2 23.5)"/><rect x="72.3" y="27.9" width="2.3" height="2.8" rx="0.4" fill="rgba(232,232,240,0.63)" filter="url(#soft)" transform="rotate(-1.6 68.2 23.5)"/><rect x="64.2" y="31.1" width="2.7" height="3.2" rx="0.4" fill="rgba(232,232,240,0.91)" filter="url(#soft)" transform="rotate(-1.6 68.2 23.5)"/><rect x="67.0" y="31.2" width="2.5" height="3.0" rx="0.4" fill="rgba(232,232,240,0.86)" filter="url(#soft)" transform="rotate(-1.6 68.2 23.5)"/><rect x="69.7" y="31.1" width="2.4" height="2.9" rx="0.4" fill="rgba(232,232,240,0.62)" filter="url(#soft)" transform="rotate(-1.6 68.2 23.5)"/><circle cx="69.5" cy="24.3" r="0.8" fill="rgba(240,240,245,0.65)" filter="url(#soft)"/><circle cx="65.9" cy="30.4" r="0.9" fill="rgba(240,240,245,0.66)" filter="url(#soft)"/><rect x="83.1" y="13.1" width="2.5" height="3.0" rx="0.4" fill="rgba(232,232,240,0.68)" filter="url(#soft)" transform="rotate(-8.0 86.8 23.5)"/><rect x="85.5" y="13.3" width="2.7" height="3.2" rx="0.4" fill="rgba(232,232,240,0.63)" filter="url(#soft)" transform="rotate(-8.0 86.8 23.5)"/><rect x="88.0" y="13.3" width="2.3" height="2.8" rx="0.4" fill="rgba(232,232,240,0.91)" filter="url(#soft)" transform="rotate(-8.0 86.8 23.5)"/><rect x="80.8" y="16.3" width="2.3" height="2.8" rx="0.4" fill="rgba(232,232,240,0.71)" filter="url(#soft)" transform="rotate(-8.0 86.8 23.5)"/><rect x="90.8" y="15.8" width="2.5" height="3.0" rx="0.4" fill="rgba(232,232,240,0.92)" filter="url(#soft)" transform="rotate(-8.0 86.8 23.5)"/><rect x="80.8" y="18.8" width="2.2" height="2.7" rx="0.4" fill="rgba(232,232,240,0.93)" filter="url(#soft)" transform="rotate(-8.0 86.8 23.5)"/><rect x="90.5" y="18.9" width="2.6" height="3.1" rx="0.4" fill="rgba(232,232,240,0.92)" filter="url(#soft)" transform="rotate(-8.0 86.8 23.5)"/><rect x="80.3" y="22.0" width="2.6" height="3.1" rx="0.4" fill="rgba(232,232,240,0.92)" filter="url(#soft)" transform="rotate(-8.0 86.8 23.5)"/><rect x="83.2" y="21.8" width="2.3" height="2.8" rx="0.4" fill="rgba(232,232,240,0.77)" filter="url(#soft)" transform="rotate(-8.0 86.8 23.5)"/><rect x="85.6" y="22.1" width="2.6" height="3.1" rx="0.4" fill="rgba(232,232,240,0.83)" filter="url(#soft)" transform="rotate(-8.0 86.8 23.5)"/><rect x="87.8" y="22.1" width="2.5" height="3.0" rx="0.4" fill="rgba(232,232,240,0.78)" filter="url(#soft)" transform="rotate(-8.0 86.8 23.5)"/><rect x="90.4" y="21.9" width="2.6" height="3.1" rx="0.4" fill="rgba(232,232,240,0.74)" filter="url(#soft)" transform="rotate(-8.0 86.8 23.5)"/><rect x="80.2" y="25.3" width="2.7" height="3.2" rx="0.4" fill="rgba(232,232,240,0.77)" filter="url(#soft)" transform="rotate(-8.0 86.8 23.5)"/><rect x="90.5" y="24.7" width="2.6" height="3.1" rx="0.4" fill="rgba(232,232,240,0.74)" filter="url(#soft)" transform="rotate(-8.0 86.8 23.5)"/><rect x="80.4" y="27.9" width="2.3" height="2.8" rx="0.4" fill="rgba(232,232,240,0.62)" filter="url(#soft)" transform="rotate(-8.0 86.8 23.5)"/><rect x="90.8" y="27.7" width="2.4" height="2.9" rx="0.4" fill="rgba(232,232,240,0.90)" filter="url(#soft)" transform="rotate(-8.0 86.8 23.5)"/><rect x="80.2" y="30.8" width="2.7" height="3.2" rx="0.4" fill="rgba(232,232,240,0.64)" filter="url(#soft)" transform="rotate(-8.0 86.8 23.5)"/><rect x="90.2" y="30.7" width="2.4" height="2.9" rx="0.4" fill="rgba(232,232,240,0.89)" filter="url(#soft)" transform="rotate(-8.0 86.8 23.5)"/><circle cx="83.7" cy="22.5" r="1.1" fill="rgba(240,240,245,0.46)" filter="url(#soft)"/><circle cx="83.7" cy="24.3" r="0.6" fill="rgba(240,240,245,0.63)" filter="url(#soft)"/><circle cx="82.2" cy="29.2" r="1.0" fill="rgba(240,240,245,0.50)" filter="url(#soft)"/><line x1="20" y1="42" x2="101" y2="42" stroke="rgba(252,252,255,0.85)" stroke-width="1.8"/><line x1="16" y1="10" x2="101" y2="13" stroke="rgba(252,252,255,0.85)" stroke-width="1.9"/><circle cx="51" cy="2" r="0.9" fill="rgba(252,252,255,0.5)"/><circle cx="12" cy="9" r="1.0" fill="rgba(252,252,255,0.5)"/><circle cx="49" cy="12" r="0.6" fill="rgba(252,252,255,0.5)"/><circle cx="16" cy="19" r="0.6" fill="rgba(252,252,255,0.5)"/><circle cx="44" cy="27" r="1.0" fill="rgba(252,252,255,0.5)"/><circle cx="73" cy="21" r="0.6" fill="rgba(252,252,255,0.5)"/><circle cx="37" cy="20" r="0.6" fill="rgba(252,252,255,0.5)"/><circle cx="89" cy="5" r="1.0" fill="rgba(252,252,255,0.5)"/><circle cx="31" cy="30" r="1.1" fill="rgba(252,252,255,0.5)"/><circle cx="117" cy="18" r="0.7" fill="rgba(252,252,255,0.5)"/><circle cx="59" cy="16" r="0.9" fill="rgba(252,252,255,0.5)"/><circle cx="101" cy="43" r="1.0" fill="rgba(252,252,255,0.5)"/><circle cx="22" cy="18" r="1.0" fill="rgba(252,252,255,0.5)"/><circle cx="74" cy="15" r="0.8" fill="rgba(252,252,255,0.5)"/><circle cx="39" cy="24" r="1.0" fill="rgba(252,252,255,0.5)"/><circle cx="22" cy="30" r="1.1" fill="rgba(252,252,255,0.5)"/><circle cx="88" cy="33" r="0.9" fill="rgba(252,252,255,0.5)"/><circle cx="72" cy="6" r="0.8" fill="rgba(252,252,255,0.5)"/><circle cx="108" cy="6" r="0.5" fill="rgba(252,252,255,0.5)"/><circle cx="87" cy="41" r="0.8" fill="rgba(252,252,255,0.5)"/><circle cx="89" cy="2" r="0.8" fill="rgba(252,252,255,0.5)"/><circle cx="29" cy="39" r="0.8" fill="rgba(252,252,255,0.5)"/><circle cx="53" cy="17" r="0.8" fill="rgba(252,252,255,0.5)"/><circle cx="9" cy="14" r="0.6" fill="rgba(252,252,255,0.5)"/><circle cx="47" cy="7" r="0.7" fill="rgba(252,252,255,0.5)"/><circle cx="58" cy="22" r="0.9" fill="rgba(252,252,255,0.5)"/></svg>